<?xml version="1.0" standalone="no"?>
<!DOCTYPE svg PUBLIC "-//W3C//DTD SVG 20010904//EN"
 "http://www.w3.org/TR/2001/REC-SVG-20010904/DTD/svg10.dtd">
<svg version="1.0" xmlns="http://www.w3.org/2000/svg"
 width="512.000000pt" height="512.000000pt" viewBox="0 0 512.000000 512.000000"
 preserveAspectRatio="xMidYMid meet">

<g transform="translate(0.000000,512.000000) scale(0.100000,-0.100000)"
fill="#000000" stroke="none">
  <path d="M1714 3845 c-231 -41 -458 -151 -639 -312 l-48 -43 627 0 628 0 64 58 c36 32 96 79 134 103 38 24 69 46 69 50 2 17 -188 93 -314 126 -126 32 -390 41 -521 18z"/>
  <path d="M2968 3844 c-95 -17 -244 -65 -323 -104 -33 -17 -51 -28 -40 -24 136 40 397 54 590 30 292 -35 564 -133 665 -241 13 -14 31 -25 39 -25 28 0 164 -65 227 -107 34 -23 90 -70 125 -105 l63 -63 -64 95 c-117 173 -304 337 -488 429 -93 47 -254 98 -362 116 -116 18 -327 18 -432 -1z"/>
  <path d="M2435 3499 l-140 -10 -42 -42 -43 -42 202 4 c216 3 383 -8 568 -39 390 -66 789 -216 1060 -398 77 -52 85 -61 90 -94 5 -35 10 -39 78 -74 87 -43 197 -148 232 -220 13 -26 25 -43 28 -36 2 6 -1 67 -7 135 -16 191 -77 404 -129 453 -38 35 -269 147 -389 188 -213 73 -495 132 -768 161 -180 19 -560 26 -740 14z"/>
  <path d="M917 3360 c-38 -45 -113 -168 -141 -232 l-26 -58 628 0 627 1 30 67 c17 37 58 108 92 159 l62 93 -624 0 -623 0 -25 -30z"/>
  <path d="M1994 3025 c-7 -19 -14 -36 -14 -38 0 -2 98 -7 218 -10 249 -7 358 -18 561 -52 519 -90 1003 -300 1295 -561 27 -24 28 -27 17 -62 -7 -20 -14 -42 -17 -48 -2 -5 11 -17 30 -26 50 -24 164 -135 196 -191 l28 -50 30 59 c44 88 79 193 102 303 31 153 37 140 -92 215 -579 335 -1248 496 -2071 496 l-268 0 -15 -35z"/>
  <path d="M696 2903 c-20 -91 -36 -191 -36 -230 l0 -33 624 0 625 0 6 58 c10 89 25 173 40 225 l14 47 -629 0 -628 0 -16 -67z"/>
  <path d="M1920 2597 l0 -44 103 -6 c337 -21 711 -109 1032 -242 258 -107 569 -290 709 -417 l41 -38 -23 -19 -22 -19 34 -21 c40 -25 143 -134 159 -168 5 -12 14 -23 18 -23 4 0 36 24 71 54 68 58 150 153 211 243 l38 57 -22 17 c-59 44 -291 176 -434 246 -438 215 -880 336 -1430 393 -79 8 -408 29 -472 30 -9 0 -13 -15 -13 -43z"/>
  <path d="M660 2518 c0 -42 15 -133 36 -225 l17 -73 627 0 628 0 -19 73 c-14 58 -39 214 -39 249 0 5 -281 8 -625 8 l-625 0 0 -32z"/>
  <path d="M1980 2206 c0 -2 7 -20 15 -39 13 -32 20 -36 72 -47 451 -87 760 -201 1029 -379 88 -59 246 -185 252 -201 2 -4 -10 -11 -27 -15 l-29 -6 42 -43 c23 -24 50 -62 61 -85 17 -40 20 -41 54 -35 117 21 415 146 451 189 12 14 -144 114 -410 263 -405 227 -753 333 -1272 387 -142 14 -238 19 -238 11z"/>
  <path d="M799 2022 c28 -53 71 -125 96 -160 l45 -62 626 0 c498 0 623 3 617 13 -5 6 -36 54 -70 106 -34 51 -71 117 -83 147 l-22 54 -630 0 -629 0 50 -98z"/>
  <path d="M2246 1750 c38 -38 48 -43 125 -56 104 -18 272 -74 353 -117 62 -33 136 -95 136 -115 0 -26 -69 -22 -240 13 -43 9 91 -53 170 -79 42 -13 111 -32 155 -41 92 -19 294 -31 349 -21 l37 7 -43 36 c-232 194 -587 333 -1043 408 l-40 6 41 -41z"/>
  <path d="M1090 1649 c30 -28 91 -75 135 -104 306 -203 670 -264 1030 -174 89 23 269 94 285 114 7 9 -4 21 -47 48 -32 19 -93 65 -135 101 l-77 66 -623 0 -623 -1 55 -50z"/>
</g>
</svg>
